<mxfile host="app.diagrams.net" modified="2021-02-12T22:02:19.243Z" agent="5.0 (Macintosh; Intel Mac OS X 10_15_7) AppleWebKit/537.36 (KHTML, like Gecko) Chrome/87.0.4280.88 Safari/537.36" etag="FV7wNo0AZ3oKgAkcjtLy" version="14.3.1" type="github">
  <diagram id="C5RBs43oDa-KdzZeNtuy" name="Page-1">
    <mxGraphModel dx="834" dy="563" grid="1" gridSize="10" guides="1" tooltips="1" connect="1" arrows="1" fold="1" page="1" pageScale="1" pageWidth="827" pageHeight="1169" math="0" shadow="0">
      <root>
        <mxCell id="WIyWlLk6GJQsqaUBKTNV-0" />
        <mxCell id="WIyWlLk6GJQsqaUBKTNV-1" parent="WIyWlLk6GJQsqaUBKTNV-0" />
        <mxCell id="_Fgwh5rluQ21k6zx6vTH-2" value="Inicio" style="strokeWidth=2;html=1;shape=mxgraph.flowchart.start_1;whiteSpace=wrap;" vertex="1" parent="WIyWlLk6GJQsqaUBKTNV-1">
          <mxGeometry x="160" y="30" width="100" height="60" as="geometry" />
        </mxCell>
        <mxCell id="_Fgwh5rluQ21k6zx6vTH-3" value="leer (radio)" style="html=1;strokeWidth=2;shape=manualInput;whiteSpace=wrap;rounded=1;size=26;arcSize=11;" vertex="1" parent="WIyWlLk6GJQsqaUBKTNV-1">
          <mxGeometry x="160" y="120" width="100" height="60" as="geometry" />
        </mxCell>
        <mxCell id="_Fgwh5rluQ21k6zx6vTH-12" value="" style="edgeStyle=orthogonalEdgeStyle;rounded=0;orthogonalLoop=1;jettySize=auto;html=1;" edge="1" parent="WIyWlLk6GJQsqaUBKTNV-1" source="_Fgwh5rluQ21k6zx6vTH-4" target="_Fgwh5rluQ21k6zx6vTH-6">
          <mxGeometry relative="1" as="geometry" />
        </mxCell>
        <mxCell id="_Fgwh5rluQ21k6zx6vTH-4" value="Imprimir &quot;El volumen de la esfera es&quot; + volumen" style="strokeWidth=2;html=1;shape=mxgraph.flowchart.display;whiteSpace=wrap;" vertex="1" parent="WIyWlLk6GJQsqaUBKTNV-1">
          <mxGeometry x="135" y="330" width="150" height="90" as="geometry" />
        </mxCell>
        <mxCell id="_Fgwh5rluQ21k6zx6vTH-6" value="Fin" style="strokeWidth=2;html=1;shape=mxgraph.flowchart.terminator;whiteSpace=wrap;" vertex="1" parent="WIyWlLk6GJQsqaUBKTNV-1">
          <mxGeometry x="160" y="450" width="100" height="60" as="geometry" />
        </mxCell>
        <mxCell id="_Fgwh5rluQ21k6zx6vTH-11" value="" style="edgeStyle=orthogonalEdgeStyle;rounded=0;orthogonalLoop=1;jettySize=auto;html=1;" edge="1" parent="WIyWlLk6GJQsqaUBKTNV-1" source="_Fgwh5rluQ21k6zx6vTH-8" target="_Fgwh5rluQ21k6zx6vTH-4">
          <mxGeometry relative="1" as="geometry" />
        </mxCell>
        <mxCell id="_Fgwh5rluQ21k6zx6vTH-8" value="volumen=3.1416*radio^3" style="rounded=1;whiteSpace=wrap;html=1;absoluteArcSize=1;arcSize=14;strokeWidth=2;" vertex="1" parent="WIyWlLk6GJQsqaUBKTNV-1">
          <mxGeometry x="142.5" y="220" width="135" height="70" as="geometry" />
        </mxCell>
        <mxCell id="_Fgwh5rluQ21k6zx6vTH-9" value="" style="endArrow=classic;html=1;" edge="1" parent="WIyWlLk6GJQsqaUBKTNV-1">
          <mxGeometry width="50" height="50" relative="1" as="geometry">
            <mxPoint x="209.5" y="90" as="sourcePoint" />
            <mxPoint x="210" y="130" as="targetPoint" />
          </mxGeometry>
        </mxCell>
        <mxCell id="_Fgwh5rluQ21k6zx6vTH-10" value="" style="endArrow=classic;html=1;" edge="1" parent="WIyWlLk6GJQsqaUBKTNV-1">
          <mxGeometry width="50" height="50" relative="1" as="geometry">
            <mxPoint x="209.5" y="180" as="sourcePoint" />
            <mxPoint x="210" y="220" as="targetPoint" />
          </mxGeometry>
        </mxCell>
        <mxCell id="_Fgwh5rluQ21k6zx6vTH-13" value="Radio" style="text;html=1;strokeColor=none;fillColor=none;align=center;verticalAlign=middle;whiteSpace=wrap;rounded=0;fontSize=15;" vertex="1" parent="WIyWlLk6GJQsqaUBKTNV-1">
          <mxGeometry x="515" y="80" width="70" height="30" as="geometry" />
        </mxCell>
        <mxCell id="_Fgwh5rluQ21k6zx6vTH-14" value="volumen=3.1416*radio^3" style="rounded=0;whiteSpace=wrap;html=1;" vertex="1" parent="WIyWlLk6GJQsqaUBKTNV-1">
          <mxGeometry x="480" y="150" width="140" height="60" as="geometry" />
        </mxCell>
        <mxCell id="_Fgwh5rluQ21k6zx6vTH-15" value="" style="edgeStyle=orthogonalEdgeStyle;rounded=0;orthogonalLoop=1;jettySize=auto;html=1;" edge="1" parent="WIyWlLk6GJQsqaUBKTNV-1">
          <mxGeometry relative="1" as="geometry">
            <mxPoint x="549.5" y="110" as="sourcePoint" />
            <mxPoint x="549.5" y="150" as="targetPoint" />
            <Array as="points">
              <mxPoint x="549.5" y="120" />
              <mxPoint x="549.5" y="120" />
            </Array>
          </mxGeometry>
        </mxCell>
        <mxCell id="_Fgwh5rluQ21k6zx6vTH-16" value="" style="edgeStyle=orthogonalEdgeStyle;rounded=0;orthogonalLoop=1;jettySize=auto;html=1;" edge="1" parent="WIyWlLk6GJQsqaUBKTNV-1">
          <mxGeometry relative="1" as="geometry">
            <mxPoint x="549.5" y="210" as="sourcePoint" />
            <mxPoint x="549.5" y="250" as="targetPoint" />
          </mxGeometry>
        </mxCell>
        <mxCell id="_Fgwh5rluQ21k6zx6vTH-17" value="Volumen" style="text;html=1;strokeColor=none;fillColor=none;align=center;verticalAlign=middle;whiteSpace=wrap;rounded=0;fontSize=15;" vertex="1" parent="WIyWlLk6GJQsqaUBKTNV-1">
          <mxGeometry x="530" y="260" width="40" height="20" as="geometry" />
        </mxCell>
      </root>
    </mxGraphModel>
  </diagram>
</mxfile>
